<svg width="33" height="33" viewBox="0 0 33 33" fill="none" xmlns="http://www.w3.org/2000/svg">
<path d="M6 23V17C6 16.55 6.09167 16.1417 6.275 15.775C6.45833 15.4083 6.7 15.0833 7 14.8V12C7 11.1667 7.29167 10.4583 7.875 9.875C8.45833 9.29167 9.16667 9 10 9H14C14.3833 9 14.7417 9.071 15.075 9.213C15.4083 9.355 15.7167 9.55067 16 9.8C16.2833 9.55 16.5917 9.35433 16.925 9.213C17.2583 9.07167 17.6167 9.00067 18 9H22C22.8333 9 23.5417 9.29167 24.125 9.875C24.7083 10.4583 25 11.1667 25 12V14.8C25.3 15.0833 25.5417 15.4083 25.725 15.775C25.9083 16.1417 26 16.55 26 17V23H24V21H8V23H6ZM17 14H23V12C23 11.7167 22.904 11.4793 22.712 11.288C22.52 11.0967 22.2827 11.0007 22 11H18C17.7167 11 17.4793 11.096 17.288 11.288C17.0967 11.48 17.0007 11.7173 17 12V14ZM9 14H15V12C15 11.7167 14.904 11.4793 14.712 11.288C14.52 11.0967 14.2827 11.0007 14 11H10C9.71667 11 9.47933 11.096 9.288 11.288C9.09667 11.48 9.00067 11.7173 9 12V14Z" fill="white"/>
</svg>
