<svg width="33" height="33" viewBox="0 0 33 33" fill="none" xmlns="http://www.w3.org/2000/svg">
<path d="M16.4986 23.5498C16.8036 23.5498 17.0961 23.6709 17.3118 23.8866C17.5274 24.1023 17.6486 24.3948 17.6486 24.6998V25.8498C17.6486 26.1548 17.5274 26.4473 17.3118 26.6629C17.0961 26.8786 16.8036 26.9997 16.4986 26.9997C16.1936 26.9997 15.9011 26.8786 15.6854 26.6629C15.4698 26.4473 15.3486 26.1548 15.3486 25.8498V24.6998C15.3486 24.3948 15.4698 24.1023 15.6854 23.8866C15.9011 23.6709 16.1936 23.5498 16.4986 23.5498ZM23.8171 21.1923L24.6302 22.0054C24.8396 22.2222 24.9556 22.5127 24.9529 22.8143C24.9503 23.1158 24.8294 23.4042 24.6162 23.6174C24.4029 23.8306 24.1145 23.9516 23.813 23.9542C23.5115 23.9568 23.221 23.8409 23.0041 23.6314L22.191 22.8184C21.9816 22.6015 21.8656 22.311 21.8683 22.0095C21.8709 21.708 21.9918 21.4195 22.205 21.2063C22.4183 20.9931 22.7067 20.8722 23.0082 20.8695C23.3097 20.8669 23.6002 20.9828 23.8171 21.1923ZM9.18008 21.1923C9.38703 20.9861 9.66472 20.8663 9.95676 20.8574C10.2488 20.8485 10.5333 20.9511 10.7524 21.1443C10.9716 21.3375 11.109 21.6069 11.1367 21.8978C11.1644 22.1887 11.0803 22.4792 10.9016 22.7103L10.8062 22.8184L9.99312 23.6314C9.78617 23.8377 9.50848 23.9574 9.21644 23.9663C8.9244 23.9753 8.63992 23.8727 8.42077 23.6794C8.20162 23.4862 8.06424 23.2168 8.03653 22.9259C8.00883 22.6351 8.09287 22.3446 8.27159 22.1135L8.36704 22.0054L9.18008 21.1923ZM16.4986 8.59995C18.3286 8.59995 20.0836 9.3269 21.3776 10.6209C22.6716 11.9149 23.3985 13.6699 23.3985 15.4999C23.3985 17.3298 22.6716 19.0849 21.3776 20.3789C20.0836 21.6728 18.3286 22.3998 16.4986 22.3998C14.6686 22.3998 12.9136 21.6728 11.6196 20.3789C10.3256 19.0849 9.59868 17.3298 9.59868 15.4999C9.59868 13.6699 10.3256 11.9149 11.6196 10.6209C12.9136 9.3269 14.6686 8.59995 16.4986 8.59995ZM16.4986 10.8999C15.2786 10.8999 14.1086 11.3846 13.2459 12.2472C12.3833 13.1099 11.8987 14.2799 11.8987 15.4999C11.8987 16.7199 12.3833 17.8899 13.2459 18.7525C14.1086 19.6152 15.2786 20.0998 16.4986 20.0998C17.7186 20.0998 18.8886 19.6152 19.7513 18.7525C20.6139 17.8899 21.0986 16.7199 21.0986 15.4999C21.0986 14.2799 20.6139 13.1099 19.7513 12.2472C18.8886 11.3846 17.7186 10.8999 16.4986 10.8999ZM7.2987 14.3499C7.59181 14.3502 7.87373 14.4624 8.08687 14.6637C8.3 14.8649 8.42826 15.1399 8.44544 15.4325C8.46261 15.7251 8.36741 16.0132 8.17929 16.238C7.99116 16.4627 7.72431 16.6072 7.43325 16.6418L7.2987 16.6499H6.14871C5.85561 16.6495 5.57368 16.5373 5.36055 16.3361C5.14741 16.1349 5.01916 15.8599 5.00198 15.5673C4.9848 15.2747 5.08 14.9865 5.26813 14.7618C5.45625 14.537 5.72311 14.3926 6.01416 14.3579L6.14871 14.3499H7.2987ZM26.8485 14.3499C27.1535 14.3499 27.446 14.471 27.6617 14.6867C27.8773 14.9024 27.9985 15.1949 27.9985 15.4999C27.9985 15.8049 27.8773 16.0974 27.6617 16.313C27.446 16.5287 27.1535 16.6499 26.8485 16.6499H25.6985C25.3935 16.6499 25.101 16.5287 24.8853 16.313C24.6697 16.0974 24.5485 15.8049 24.5485 15.4999C24.5485 15.1949 24.6697 14.9024 24.8853 14.6867C25.101 14.471 25.3935 14.3499 25.6985 14.3499H26.8485ZM8.36704 7.36831C8.56506 7.17031 8.82852 7.05137 9.108 7.03379C9.38748 7.01622 9.66376 7.10123 9.88502 7.27286L9.99312 7.36831L10.8062 8.18135C11.0124 8.3883 11.1322 8.666 11.1411 8.95804C11.15 9.25008 11.0474 9.53456 10.8542 9.75371C10.6609 9.97286 10.3915 10.1102 10.1007 10.1379C9.80982 10.1656 9.51932 10.0816 9.28818 9.90289L9.18008 9.80744L8.36704 8.9944C8.15145 8.77874 8.03034 8.48629 8.03034 8.18135C8.03034 7.87642 8.15145 7.58397 8.36704 7.36831ZM24.6302 7.36831C24.8458 7.58397 24.9669 7.87642 24.9669 8.18135C24.9669 8.48629 24.8458 8.77874 24.6302 8.9944L23.8171 9.80744C23.711 9.91727 23.5841 10.0049 23.4438 10.0652C23.3035 10.1254 23.1526 10.1571 22.9999 10.1585C22.8472 10.1598 22.6958 10.1307 22.5545 10.0729C22.4132 10.0151 22.2848 9.92967 22.1768 9.82169C22.0688 9.71372 21.9834 9.58532 21.9256 9.44399C21.8678 9.30266 21.8387 9.15123 21.84 8.99853C21.8413 8.84584 21.8731 8.69494 21.9333 8.55464C21.9936 8.41433 22.0812 8.28744 22.191 8.18135L23.0041 7.36831C23.2197 7.15272 23.5122 7.03161 23.8171 7.03161C24.1221 7.03161 24.4145 7.15272 24.6302 7.36831ZM16.4986 4C16.8036 4 17.0961 4.12116 17.3118 4.33682C17.5274 4.55249 17.6486 4.84499 17.6486 5.14999V6.29997C17.6486 6.60497 17.5274 6.89747 17.3118 7.11314C17.0961 7.3288 16.8036 7.44996 16.4986 7.44996C16.1936 7.44996 15.9011 7.3288 15.6854 7.11314C15.4698 6.89747 15.3486 6.60497 15.3486 6.29997V5.14999C15.3486 4.84499 15.4698 4.55249 15.6854 4.33682C15.9011 4.12116 16.1936 4 16.4986 4Z" fill="white"/>
</svg>
