<svg width="20" height="20" viewBox="0 0 20 20" fill="none" xmlns="http://www.w3.org/2000/svg">
<path fill-rule="evenodd" clip-rule="evenodd" d="M10 20C15.5228 20 20 15.5228 20 10C20 4.47715 15.5228 0 10 0C4.47715 0 0 4.47715 0 10C0 15.5228 4.47715 20 10 20ZM14.2983 8.26174C14.5809 7.95893 14.5646 7.48434 14.2617 7.20171C13.9589 6.91909 13.4843 6.93545 13.2017 7.23826L9.08334 11.6508L7.29829 9.73826C7.01567 9.43545 6.54108 9.41909 6.23826 9.70171C5.93545 9.98434 5.91909 10.4589 6.20171 10.7617L8.53504 13.2617C8.67689 13.4137 8.87545 13.5 9.08334 13.5C9.29122 13.5 9.48978 13.4137 9.63163 13.2617L14.2983 8.26174Z" fill="white"/>
</svg>
